<?xml version="1.0" encoding="utf-8"?>
<!-- Generator: Adobe Illustrator 26.2.1, SVG Export Plug-In . SVG Version: 6.00 Build 0)  -->
<svg version="1.1" id="Calque_1" xmlns="http://www.w3.org/2000/svg" xmlns:xlink="http://www.w3.org/1999/xlink" x="0px" y="0px"
	 viewBox="0 0 24 24" style="enable-background:new 0 0 24 24;" xml:space="preserve">
<style type="text/css">
	.st0{fill:#FFFFFF;fill-opacity:0;}
	.st1{fill:#FFFFFF;}
</style>
<g>
	<g>
		<rect class="st0" width="24" height="24"/>
		<path class="st1" d="M17.6,21c-0.2,0-0.3,0-0.5-0.1L12,18.2l-5.1,2.7c-0.5,0.3-1.1,0.1-1.4-0.4c-0.1-0.2-0.1-0.4-0.1-0.6l1-5.6
			l-4.1-4C2.1,9.9,2,9.6,2.1,9.2c0.1-0.4,0.4-0.6,0.8-0.7l5.7-0.8l2.5-5.1c0.2-0.5,0.8-0.7,1.3-0.5c0.2,0.1,0.4,0.3,0.5,0.5l2.5,5.1
			l5.7,0.8c0.4,0.1,0.7,0.3,0.8,0.7c0.1,0.4,0,0.7-0.2,1l-4.1,4l1,5.6c0.1,0.4-0.1,0.8-0.4,1C18,20.9,17.8,21,17.6,21z"/>
	</g>
</g>
</svg>
